# Blender 4.5.4 LTS
# www.blender.org
o Gun_main
v -0.039999 0.216711 -0.606064
v -0.039999 0.006031 -0.626065
v -0.099999 0.088758 -0.166064
v -0.099999 0.006031 -0.166064
v -0.046666 0.086031 0.021355
v -0.049254 -0.003969 0.011696
v -0.057976 0.016185 0.145548
v -0.057976 -0.041791 0.151346
v -0.099999 0.060132 0.272802
v -0.099999 -0.029868 0.242802
v -0.026919 -0.047386 -0.129961
v -0.026504 -0.050386 -0.074903
v -0.054172 -0.002969 -0.006657
v -0.051842 0.089031 0.002037
v -0.027979 -0.050086 -0.080409
v -0.070219 0.141181 -0.066544
v -0.074088 0.001081 -0.080985
v -0.046527 -0.018871 -0.131685
v -0.064130 0.009056 -0.043821
v -0.063619 0.130610 -0.041913
v -0.079999 0.088758 -0.401064
v -0.079999 -0.003969 -0.346064
v -0.039999 0.106031 -0.475064
v -0.039999 0.004031 -0.570064
v -0.069999 -0.035944 -0.561492
v -0.079999 -0.023944 -0.387492
v 0.000000 0.080309 -0.164555
v 0.000000 0.147234 -0.545631
v 0.000000 0.008661 -0.562952
v 0.000000 0.008661 -0.164555
v 0.000000 0.077948 0.008661
v 0.000000 0.000000 -0.000000
v 0.000000 0.017455 0.105326
v 0.000000 -0.032757 0.110347
v 0.000000 0.055517 0.215537
v 0.000000 -0.046047 0.189555
v 0.000000 -0.037603 -0.127014
v 0.000000 -0.057342 -0.077647
v 0.000000 -0.057082 -0.082584
v 0.000000 0.000866 -0.016456
v 0.000000 0.004374 -0.083100
v 0.000000 0.080546 -0.008661
v 0.000000 0.125712 -0.070152
v 0.000000 -0.012906 -0.128560
v 0.000000 0.155094 -0.048067
v 0.000000 0.011281 -0.049778
v 0.000000 0.000000 -0.320450
v 0.000000 0.080309 -0.368084
v 0.000000 0.095270 -0.458157
v 0.000000 0.006929 -0.514452
v 0.000000 -0.017299 -0.356329
v 0.000000 -0.027692 -0.507028
v 0.040001 0.216711 -0.606064
v 0.040001 0.006031 -0.626065
v 0.100001 0.139438 -0.166064
v 0.100001 0.006031 -0.166064
v 0.046668 0.136711 0.021355
v 0.049256 -0.003969 0.011696
v 0.057978 0.066864 0.145548
v 0.057978 -0.041791 0.151346
v 0.100001 0.110812 0.272802
v 0.100001 -0.029868 0.242802
v 0.026921 -0.047386 -0.129961
v 0.026506 -0.050386 -0.074903
v 0.054174 -0.002969 -0.006657
v 0.051844 0.139711 0.002037
v 0.027981 -0.050086 -0.080409
v 0.070221 0.191861 -0.066544
v 0.074090 0.001081 -0.080985
v 0.046529 -0.018871 -0.131685
v 0.064132 0.009056 -0.043821
v 0.063621 0.225786 -0.041913
v 0.080001 0.139438 -0.401064
v 0.080001 -0.003969 -0.346064
v 0.040001 0.156711 -0.475064
v 0.040001 0.004031 -0.570064
v 0.070001 -0.035944 -0.561492
v 0.080001 -0.023944 -0.387492
v -0.138664 0.004031 -0.570064
v -0.178664 -0.003969 -0.346064
v -0.131352 0.088758 -0.401064
v -0.091352 0.106031 -0.475064
v -0.121352 -0.035944 -0.561492
v -0.131352 -0.023944 -0.387492
vn -0.9659 -0.0000 0.2588
vn -1.0000 -0.0000 -0.0000
vn 0.0842 0.9964 -0.0000
vn 0.1890 0.9711 0.1457
vn 0.2795 0.8139 0.5093
vn -0.9969 0.0362 -0.0704
vn 0.4296 -0.2238 0.8748
vn -0.2400 0.9176 -0.3169
vn -0.9306 0.1158 -0.3473
vn 0.0955 -0.9305 0.3537
vn -0.4681 -0.8789 0.0914
vn -0.1480 -0.7956 0.5875
vn -0.7341 -0.6597 0.1608
vn 0.1356 0.7451 -0.6530
vn -0.0939 0.4653 0.8802
vn -0.9575 -0.0033 0.2883
vn 0.1736 0.8875 -0.4268
vn -0.1308 0.0619 0.9895
vn -0.2948 0.5741 -0.7638
vn -0.0939 -0.8968 0.4324
vn 0.0366 0.9858 0.1637
vn -0.9939 -0.0000 -0.1104
vn 0.0154 0.8596 0.5107
vn -0.0000 -0.2097 -0.9778
vn -0.0000 0.5101 0.8601
vn 0.0612 -0.9955 0.0722
vn 0.5526 -0.5491 -0.6270
vn 0.0528 -0.9778 0.2027
vn 0.0111 -0.9505 -0.3105
vn -0.2584 -0.9647 -0.0508
vn -0.1211 -0.9899 0.0734
vn -0.0360 -0.9640 -0.2633
vn 0.0307 -0.9978 0.0588
vn 0.0268 -0.5343 -0.8448
vn 0.1211 -0.9920 -0.0354
vn 0.8415 0.0670 -0.5361
vn 0.9659 -0.0000 0.2588
vn 1.0000 -0.0000 -0.0000
vn -0.5804 0.8128 0.0494
vn -0.7401 0.6657 -0.0949
vn -0.7654 0.5286 0.3670
vn 0.9967 0.0237 -0.0775
vn -0.4296 -0.2238 0.8748
vn -0.5011 0.8180 -0.2825
vn 0.9095 -0.0221 -0.4150
vn -0.0520 -0.9193 0.3900
vn 0.4681 -0.8789 0.0914
vn -0.1872 -0.8445 0.5018
vn 0.7341 -0.6597 0.1608
vn -0.1355 0.7451 -0.6530
vn -0.5545 0.4374 0.7080
vn 0.9566 -0.0000 0.2913
vn -0.4747 0.7932 -0.3815
vn 0.1308 0.0619 0.9895
vn -0.4648 0.5320 -0.7078
vn 0.0939 -0.8968 0.4324
vn -0.6625 0.5663 0.4903
vn 0.9939 -0.0000 -0.1104
vn -0.6888 0.6592 0.3019
vn 0.9817 -0.0682 -0.1777
vn 0.9339 0.3220 -0.1553
vn -0.0612 -0.9955 0.0722
vn -0.8086 -0.1234 -0.5752
vn -0.0491 -0.9792 0.1970
vn -0.0111 -0.9505 -0.3105
vn 0.2417 -0.9703 0.0119
vn -0.0366 -0.9856 -0.1654
vn -0.0097 -0.9586 -0.2846
vn -0.0307 -0.9978 0.0588
vn -0.0268 -0.5343 -0.8448
vn -0.1211 -0.9920 -0.0354
vn -0.8577 0.0486 -0.5118
vn -0.9138 0.3775 -0.1497
vn -0.4703 -0.8750 -0.1152
vn -0.0000 -0.9976 0.0688
vn -0.0000 0.9738 0.2273
vn -0.0000 -0.9008 0.4343
vn -0.0000 0.6815 -0.7318
vn 0.1015 0.9948 0.0086
vn 0.1959 0.9756 0.0990
vn 0.3197 0.8131 0.4864
vn -0.9979 -0.0064 -0.0641
vn 0.4674 -0.2796 0.8387
vn -0.1706 0.9126 -0.3715
vn -0.9099 -0.0413 -0.4127
vn 0.0520 -0.9193 0.3901
vn -0.6192 -0.3844 0.6847
vn 0.1872 -0.8445 0.5018
vn -0.1603 0.8050 -0.5712
vn 0.2503 0.7359 0.6291
vn -0.9566 -0.0000 0.2913
vn 0.0809 0.8717 -0.4834
vn -0.0687 0.0131 0.9976
vn 0.2191 0.9165 0.3346
vn 0.1314 0.9473 0.2921
vn -0.9951 -0.0502 -0.0847
vn 0.3318 0.7206 0.6088
vn 0.0560 -0.9961 0.0687
vn 0.8087 -0.1233 -0.5752
vn 0.0491 -0.9792 0.1970
vn 0.0054 -0.9545 -0.2983
vn -0.2417 -0.9703 0.0119
vn 0.0366 -0.9856 -0.1654
vn 0.0097 -0.9586 -0.2846
vn 0.0254 -0.9981 0.0555
vn 0.2996 -0.6012 -0.7408
vn 0.8577 0.0486 -0.5118
vn -0.5090 0.8608 -0.0000
vn -0.7893 0.6072 0.0911
vn -0.7370 0.5729 0.3585
vn 0.9980 -0.0034 -0.0632
vn -0.4064 -0.1906 0.8936
vn -0.3946 0.9009 -0.1808
vn 0.9395 0.0714 -0.3349
vn -0.0955 -0.9305 0.3537
vn 0.6192 -0.3844 0.6847
vn 0.1480 -0.7956 0.5875
vn 0.1603 0.8050 -0.5712
vn -0.5820 0.3800 0.7189
vn 0.9577 -0.0024 0.2878
vn -0.5761 0.6394 -0.5092
vn 0.0687 0.0131 0.9976
vn -0.4457 0.4676 -0.7634
vn -0.5518 0.8227 0.1366
vn 0.9959 -0.0325 -0.0848
vn -0.7414 0.5770 0.3428
vn 0.8740 0.2567 -0.4125
vn 0.8056 0.5860 -0.0867
vn -0.0560 -0.9961 0.0687
vn -0.5526 -0.5491 -0.6270
vn -0.0528 -0.9778 0.2027
vn -0.0054 -0.9545 -0.2983
vn 0.2584 -0.9647 -0.0508
vn 0.1211 -0.9899 0.0734
vn 0.0360 -0.9640 -0.2633
vn -0.0254 -0.9981 0.0555
vn -0.2996 -0.6012 -0.7408
vn -0.8415 0.0670 -0.5361
vn -0.7543 0.5994 -0.2678
vn -0.9154 -0.4018 -0.0249
vt 0.360654 0.493935
vt 0.361236 0.494092
vt 0.360651 0.494061
vt 0.360764 0.534877
vt 0.361827 0.533976
vt 0.361049 0.535100
vt 0.361222 0.498032
vt 0.360472 0.496847
vt 0.361111 0.496826
vt 0.362151 0.368967
vt 0.362243 0.369280
vt 0.362151 0.369309
vt 0.361972 0.377997
vt 0.361602 0.378605
vt 0.361665 0.377954
vt 0.360972 0.494928
vt 0.362226 0.368277
vt 0.361720 0.368957
vt 0.361740 0.368273
vt 0.361610 0.533786
vt 0.361133 0.533359
vt 0.361883 0.533427
vt 0.361180 0.495604
vt 0.360575 0.495703
vt 0.361794 0.514642
vt 0.362131 0.514340
vt 0.362104 0.514642
vt 0.362319 0.513994
vt 0.361785 0.514162
vt 0.361366 0.529142
vt 0.361537 0.529680
vt 0.361366 0.529706
vt 0.361250 0.493975
vt 0.361613 0.493583
vt 0.362160 0.377084
vt 0.361650 0.376891
vt 0.362191 0.376907
vt 0.362151 0.369917
vt 0.361602 0.369797
vt 0.362054 0.369494
vt 0.361216 0.493727
vt 0.360438 0.493614
vt 0.360847 0.492871
vt 0.361308 0.493500
vt 0.360399 0.493447
vt 0.360630 0.496112
vt 0.361078 0.496150
vt 0.362122 0.371521
vt 0.362310 0.371360
vt 0.362265 0.371528
vt 0.360655 0.495991
vt 0.361077 0.495943
vt 0.361473 0.504584
vt 0.360951 0.504626
vt 0.360969 0.504378
vt 0.361278 0.498528
vt 0.360729 0.498233
vt 0.361618 0.491813
vt 0.361374 0.492956
vt 0.362043 0.370650
vt 0.362310 0.371120
vt 0.362055 0.371225
vt 0.361858 0.374366
vt 0.361602 0.374810
vt 0.361602 0.374172
vt 0.361602 0.375508
vt 0.361932 0.374811
vt 0.362237 0.375508
vt 0.360877 0.505593
vt 0.361451 0.504871
vt 0.361302 0.505983
vt 0.361967 0.373913
vt 0.361539 0.514227
vt 0.361574 0.514642
vt 0.361375 0.514642
vt 0.361317 0.514291
vt 0.361366 0.529737
vt 0.361741 0.528233
vt 0.361366 0.527995
vt 0.362013 0.527637
vt 0.361684 0.529073
vt 0.361366 0.528482
vt 0.361689 0.503441
vt 0.361602 0.372088
vt 0.362026 0.372263
vt 0.361613 0.372735
vt 0.361860 0.377550
vt 0.362119 0.377601
vt 0.362119 0.377954
vt 0.361602 0.371441
vt 0.362043 0.370497
vt 0.362016 0.371399
vt 0.360973 0.481245
vt 0.361876 0.481439
vt 0.360954 0.481369
vt 0.361776 0.485084
vt 0.360399 0.485295
vt 0.360798 0.484454
vt 0.361779 0.496648
vt 0.361779 0.498048
vt 0.362026 0.375649
vt 0.361602 0.375629
vt 0.361644 0.375508
vt 0.361986 0.375755
vt 0.361602 0.376546
vt 0.361440 0.480447
vt 0.361882 0.481321
vt 0.361602 0.367675
vt 0.361558 0.533002
vt 0.362089 0.479819
vt 0.362142 0.480420
vt 0.362131 0.514943
vt 0.361785 0.515121
vt 0.362319 0.515289
vt 0.361194 0.529680
vt 0.361047 0.529073
vt 0.362165 0.481891
vt 0.362160 0.376723
vt 0.361675 0.369376
vt 0.362151 0.368966
vt 0.361799 0.481676
vt 0.360399 0.481642
vt 0.360959 0.482445
vt 0.361851 0.481915
vt 0.361821 0.482459
vt 0.362310 0.371707
vt 0.360618 0.481803
vt 0.361554 0.495934
vt 0.360441 0.504506
vt 0.361423 0.530771
vt 0.361074 0.531098
vt 0.361023 0.530618
vt 0.361862 0.483628
vt 0.361143 0.530176
vt 0.360719 0.529737
vt 0.360931 0.483969
vt 0.361988 0.483898
vt 0.360419 0.504793
vt 0.360399 0.505914
vt 0.361602 0.373654
vt 0.361745 0.373913
vt 0.361539 0.515056
vt 0.361317 0.514992
vt 0.361185 0.529715
vt 0.360991 0.528233
vt 0.360399 0.503344
vt 0.362026 0.371914
vt 0.361613 0.371441
vt 0.361602 0.377601
vt 0.361602 0.377954
vt 0.362086 0.529737
vt 0.361706 0.367286
vt 0.362306 0.366220
vt 0.362306 0.367675
vt 0.361745 0.506021
vt 0.361782 0.504896
vt 0.362109 0.504632
vt 0.361633 0.506008
vt 0.360704 0.498632
vt 0.360399 0.498251
vt 0.361045 0.499439
vt 0.361034 0.498614
vt 0.360719 0.533976
vt 0.362262 0.368966
vt 0.361972 0.378800
vt 0.361335 0.495024
vt 0.362129 0.368966
vt 0.360719 0.533976
vt 0.362155 0.514467
vt 0.361618 0.493548
vt 0.361602 0.377244
vt 0.361804 0.370074
vt 0.362145 0.371225
vt 0.361083 0.491367
vt 0.362310 0.370074
vt 0.361858 0.374698
vt 0.361602 0.374810
vt 0.361547 0.529715
vt 0.361045 0.503380
vt 0.361978 0.372088
vt 0.361860 0.377244
vt 0.361602 0.370074
vt 0.361758 0.485446
vt 0.362023 0.376491
vt 0.362295 0.367675
vt 0.360719 0.532654
vt 0.361183 0.479610
vt 0.362155 0.514816
vt 0.362164 0.481926
vt 0.361602 0.376546
vt 0.362145 0.371824
vt 0.361512 0.495703
vt 0.361463 0.531360
vt 0.362046 0.485026
vt 0.361858 0.373460
vt 0.360719 0.527637
vt 0.362045 0.530149
vt 0.361602 0.366797
vt 0.360410 0.499473
s 0
f 14/1/1 6/2/1 5/3/1
f 24/4/2 1/5/2 2/6/2
f 48/7/3 3/8/3 27/9/3
f 14/10/4 31/11/4 42/12/4
f 5/13/5 33/14/5 31/15/5
f 6/2/6 7/16/6 5/3/6
f 35/17/7 10/18/7 36/19/7
f 7/20/8 35/21/8 33/22/8
f 7/16/9 10/23/9 9/24/9
f 41/25/10 18/26/10 44/27/10
f 4/28/11 18/26/11 17/29/11
f 32/30/12 12/31/12 38/32/12
f 13/33/13 12/34/13 6/2/13
f 15/35/14 40/36/14 39/37/14
f 20/38/15 42/39/15 45/40/15
f 19/41/1 14/1/1 20/42/1
f 3/43/16 17/44/16 16/45/16
f 27/9/17 16/46/17 43/47/17
f 44/48/18 11/49/18 37/50/18
f 17/44/1 20/42/1 16/45/1
f 43/47/19 20/51/19 45/52/19
f 22/53/20 51/54/20 47/55/20
f 49/56/21 21/57/21 48/7/21
f 3/43/22 22/58/22 4/59/22
f 28/60/23 23/61/23 49/62/23
f 25/63/24 79/64/24 24/65/24
f 22/66/25 81/67/25 80/68/25
f 52/69/26 26/70/26 25/71/26
f 24/65/27 52/72/27 25/63/27
f 19/73/28 41/25/28 46/74/28
f 19/73/29 40/75/29 13/76/29
f 12/31/30 39/77/30 38/32/30
f 8/78/31 36/79/31 10/80/31
f 6/81/32 34/82/32 8/78/32
f 47/55/33 4/83/33 22/53/33
f 30/84/34 11/85/34 4/86/34
f 29/87/35 24/88/35 2/89/35
f 2/90/36 28/91/36 29/92/36
f 57/93/37 65/94/37 66/95/37
f 76/96/38 53/97/38 75/98/38
f 48/7/39 55/99/39 73/100/39
f 42/101/40 57/102/40 66/103/40
f 31/104/41 59/105/41 57/102/41
f 59/106/42 58/107/42 57/93/42
f 62/108/43 35/17/43 36/19/43
f 35/21/44 59/109/44 33/22/44
f 59/106/45 62/110/45 60/111/45
f 41/25/46 70/112/46 69/113/46
f 70/112/47 56/114/47 69/113/47
f 32/30/48 64/115/48 58/116/48
f 64/117/49 65/94/49 58/107/49
f 40/36/50 67/118/50 39/37/50
f 45/40/51 66/119/51 72/120/51
f 66/95/37 71/121/37 72/122/37
f 55/123/52 69/124/52 56/125/52
f 43/47/53 55/99/53 27/9/53
f 63/126/54 44/48/54 37/50/54
f 68/127/37 71/121/37 69/124/37
f 45/52/55 68/128/55 43/47/55
f 51/54/56 74/129/56 47/55/56
f 49/130/57 73/131/57 75/132/57
f 74/133/58 55/123/58 56/125/58
f 28/134/59 75/132/59 53/135/59
f 76/96/60 73/136/60 74/133/60
f 78/137/61 76/96/61 74/133/61
f 78/138/62 52/69/62 77/139/62
f 76/140/63 52/72/63 50/141/63
f 71/142/64 41/25/64 69/113/64
f 40/75/65 71/142/65 65/143/65
f 64/115/66 39/77/66 67/144/66
f 60/145/67 36/79/67 34/82/67
f 58/116/68 34/82/68 32/30/68
f 56/146/69 47/55/69 74/129/69
f 63/147/70 30/84/70 56/148/70
f 76/149/71 29/87/71 54/150/71
f 54/151/72 28/134/72 53/135/72
f 81/152/73 79/153/73 80/154/73
f 79/155/74 84/156/74 80/157/74
f 26/70/75 83/158/75 25/71/75
f 21/57/76 82/159/76 81/160/76
f 22/53/77 84/156/77 26/70/77
f 24/161/78 82/159/78 23/162/78
f 14/1/1 13/33/1 6/2/1
f 24/4/2 23/163/2 1/5/2
f 48/7/79 21/57/79 3/8/79
f 14/10/80 5/164/80 31/11/80
f 5/13/81 7/165/81 33/14/81
f 6/2/82 8/166/82 7/16/82
f 35/17/83 9/167/83 10/18/83
f 7/20/84 9/168/84 35/21/84
f 7/16/85 8/166/85 10/23/85
f 41/25/86 17/29/86 18/26/86
f 4/28/87 11/169/87 18/26/87
f 32/30/88 6/81/88 12/31/88
f 13/33/13 15/170/13 12/34/13
f 15/35/89 13/171/89 40/36/89
f 20/38/90 14/172/90 42/39/90
f 19/41/1 13/33/1 14/1/1
f 3/43/91 4/59/91 17/44/91
f 27/9/92 3/8/92 16/46/92
f 44/48/93 18/173/93 11/49/93
f 17/44/1 19/41/1 20/42/1
f 43/47/94 16/46/94 20/51/94
f 22/53/20 26/70/20 51/54/20
f 49/56/95 23/162/95 21/57/95
f 3/43/96 21/174/96 22/58/96
f 28/60/97 1/175/97 23/61/97
f 25/63/24 83/176/24 79/64/24
f 22/66/25 21/177/25 81/67/25
f 52/69/98 51/54/98 26/70/98
f 24/65/99 50/141/99 52/72/99
f 19/73/100 17/29/100 41/25/100
f 19/73/101 46/74/101 40/75/101
f 12/31/102 15/178/102 39/77/102
f 8/78/103 34/82/103 36/79/103
f 6/81/104 32/30/104 34/82/104
f 47/55/105 30/179/105 4/83/105
f 30/84/106 37/180/106 11/85/106
f 29/87/35 50/181/35 24/88/35
f 2/90/107 1/182/107 28/91/107
f 57/93/37 58/107/37 65/94/37
f 76/96/38 54/183/38 53/97/38
f 48/7/108 27/9/108 55/99/108
f 42/101/109 31/104/109 57/102/109
f 31/104/110 33/184/110 59/105/110
f 59/106/111 60/111/111 58/107/111
f 62/108/112 61/185/112 35/17/112
f 35/21/113 61/186/113 59/109/113
f 59/106/114 61/187/114 62/110/114
f 41/25/115 44/27/115 70/112/115
f 70/112/116 63/188/116 56/114/116
f 32/30/117 38/32/117 64/115/117
f 64/117/49 67/189/49 65/94/49
f 40/36/118 65/190/118 67/118/118
f 45/40/119 42/39/119 66/119/119
f 66/95/37 65/94/37 71/121/37
f 55/123/120 68/127/120 69/124/120
f 43/47/121 68/128/121 55/99/121
f 63/126/122 70/191/122 44/48/122
f 68/127/37 72/122/37 71/121/37
f 45/52/123 72/192/123 68/128/123
f 51/54/56 78/138/56 74/129/56
f 49/130/124 48/193/124 73/131/124
f 74/133/125 73/136/125 55/123/125
f 28/134/126 49/130/126 75/132/126
f 76/96/127 75/98/127 73/136/127
f 78/137/128 77/194/128 76/96/128
f 78/138/129 51/54/129 52/69/129
f 76/140/130 77/195/130 52/72/130
f 71/142/131 46/74/131 41/25/131
f 40/75/132 46/74/132 71/142/132
f 64/115/133 38/32/133 39/77/133
f 60/145/134 62/196/134 36/79/134
f 58/116/135 60/145/135 34/82/135
f 56/146/136 30/179/136 47/55/136
f 63/147/137 37/180/137 30/84/137
f 76/149/71 50/181/71 29/87/71
f 54/151/138 29/197/138 28/134/138
f 81/152/139 82/198/139 79/153/139
f 79/155/140 83/158/140 84/156/140
f 26/70/75 84/156/75 83/158/75
f 21/57/76 23/162/76 82/159/76
f 22/53/77 80/157/77 84/156/77
f 24/161/78 79/199/78 82/159/78
