# Blender 4.5.4 LTS
# www.blender.org
o Skull
v -5.000001 -1.000000 6.000001
v -5.000001 8.000002 2.000000
v 20.000004 -0.639495 1.081246
v 11.000003 -1.000000 4.500001
v 4.750001 -1.000000 5.000001
v 8.818669 3.843810 3.062540
v -0.209408 7.785823 3.305195
v 4.750001 1.750000 6.000001
v -5.000001 -1.000000 0.000000
v -5.000001 8.000002 0.000000
v 20.000004 -0.643738 0.000000
v 11.000003 -1.000000 0.000000
v 4.750001 -1.000000 0.000000
v -0.209408 8.385823 0.000000
v 8.818669 4.843810 0.000000
v -1.003257 5.996209 5.590079
v -2.883126 16.000004 2.000000
v -0.209408 15.785826 3.305195
v -1.003257 13.996210 5.590079
v -2.883126 16.000004 15.263519
v -0.209408 15.785826 13.958323
v -1.003257 13.996210 11.673440
v -0.209408 0.735531 13.958323
v -3.350017 0.735531 11.673440
v -5.000001 -1.000000 -6.000001
v -5.000001 8.000002 -2.000000
v 20.000004 -0.639495 -1.081246
v 11.000003 -1.000000 -4.500001
v 4.750001 -1.000000 -5.000001
v 8.818669 3.843810 -3.062540
v -0.209408 7.785823 -3.305195
v 4.750001 1.750000 -6.000001
v -1.003257 5.996209 -5.590079
v -2.883126 16.000004 -2.000000
v -0.209408 15.785826 -3.305195
v -1.003257 13.996210 -5.590079
v -2.883126 16.000004 -15.263519
v -0.209408 15.785826 -13.958323
v -1.003257 13.996210 -11.673440
v -4.983392 3.753321 -13.791181
v -0.209408 0.735531 -13.958323
v -3.350017 0.735531 -11.673440
v 3.994251 1.369680 3.813570
v 6.580276 2.700495 1.946534
v 0.842076 5.206018 2.100765
v 3.994251 1.369680 -3.813570
v 6.580276 2.700495 -1.946534
v 0.842076 5.206018 -2.100765
v 10.000002 3.000001 2.500000
v 11.000003 2.800000 0.000000
v 20.000004 -1.000000 0.000000
v 10.000002 3.000001 -2.500000
v 10.571704 1.241922 2.069417
v 11.399470 1.076368 -0.000000
v 10.571705 1.241922 -2.069416
v -3.350017 3.843810 11.673440
v -5.000001 4.391016 15.263519
v -2.556168 2.525146 13.958323
v -3.350017 3.843810 -11.673440
v -5.000001 4.391016 -15.263519
v -2.556168 2.525146 -13.958323
v 18.285900 2.196456 6.252058
v 18.285900 2.196456 -6.252058
vn 0.0400 -0.9992 -0.0000
vn -0.0000 -1.0000 -0.0000
vn 0.2935 0.4852 0.8237
vn 0.7933 0.4912 -0.3597
vn 0.3601 0.9179 0.1666
vn -0.0047 0.9839 0.1786
vn 0.3814 0.4166 0.8252
vn -0.5252 0.3456 0.7776
vn 0.6684 0.7134 0.2103
vn 0.0750 -0.3408 0.9371
vn 0.0959 -0.3402 0.9355
vn -1.0000 -0.0000 -0.0000
vn 0.4234 0.6360 0.6452
vn -0.0196 0.0697 0.9974
vn -0.8109 0.2146 0.5444
vn -0.7293 -0.6842 -0.0000
vn 0.9446 -0.0000 0.3282
vn 0.4387 -0.0000 -0.8986
vn 0.6064 0.7952 -0.0014
vn 0.9141 -0.4055 -0.0000
vn 0.0798 0.9968 -0.0000
vn -0.4038 -0.7273 0.5550
vn -0.0000 -0.9487 -0.3163
vn 0.2935 0.4852 -0.8237
vn 0.7933 0.4912 0.3597
vn 0.3601 0.9179 -0.1666
vn -0.0803 0.9968 -0.0000
vn 0.6295 0.4676 -0.6205
vn -0.5252 0.3456 -0.7776
vn 0.6684 0.7134 -0.2103
vn 0.0750 -0.3408 -0.9371
vn 0.0959 -0.3402 -0.9355
vn 0.4234 0.6360 -0.6452
vn -0.0196 0.0697 -0.9974
vn -0.6682 -0.0000 -0.7439
vn 0.9446 -0.0000 -0.3282
vn 0.2594 -0.0686 0.9633
vn -0.4972 0.7941 0.3496
vn -0.4404 -0.6631 -0.6053
vn -0.4417 -0.8251 -0.3524
vn 0.2690 0.5682 0.7776
vn 0.2690 0.5682 -0.7776
vn -0.4560 0.8900 0.0028
vn -0.4560 0.8900 -0.0028
vn -0.1850 -0.4766 -0.8594
vn -0.1850 -0.4766 0.8594
vn 0.9132 0.2116 0.3483
vn 0.9132 0.2116 -0.3483
vn 1.0000 -0.0000 -0.0000
vn -0.0583 0.2196 0.9739
vn 0.1961 0.9806 -0.0038
vn 0.1961 0.9806 0.0038
vn -0.0583 0.2196 -0.9739
vn 0.4245 -0.0751 0.9023
vn 0.8823 -0.2039 -0.4242
vn -0.8379 0.1528 -0.5240
vn 0.4322 -0.0788 -0.8983
vn 0.9645 -0.1707 0.2014
vn -0.8379 0.1528 0.5240
vn 0.1783 0.8778 0.4447
vn 0.3205 0.4203 0.8489
vn 0.0500 -0.9964 -0.0688
vn -0.2431 -0.0000 -0.9700
vn -0.2431 -0.0000 0.9700
vn 0.0500 -0.9964 0.0688
vn 0.3205 0.4203 -0.8489
vn 0.1783 0.8778 -0.4447
vn -0.9086 -0.0000 -0.4176
vn -0.0000 -0.9487 0.3163
vn 0.3899 0.8754 0.2858
vn 0.6295 0.4676 0.6205
vn 0.6372 0.7326 0.2392
vn -0.6682 -0.0000 0.7439
vn 0.2594 -0.0686 -0.9633
vn 0.3899 0.8754 -0.2858
vn -0.0047 0.9839 -0.1786
vn 0.3814 0.4166 -0.8252
vn 0.6372 0.7326 -0.2392
vn -0.8109 0.2146 -0.5444
vn 0.4387 -0.0000 0.8986
vn -0.7918 -0.0000 0.6107
vn -0.1939 -0.2543 -0.9475
vn 0.1957 0.9807 -0.0002
vn 0.1957 0.9807 0.0002
vn 0.4322 -0.0788 0.8983
vn 0.9645 -0.1707 -0.2014
vn -0.8776 0.2029 -0.4343
vn 0.4245 -0.0751 -0.9023
vn 0.8823 -0.2039 0.4242
vn -0.8776 0.2029 0.4343
vt 0.110155 0.165334
vt 0.130006 0.000000
vt 0.192772 0.165334
vt 0.110155 0.280055
vt 0.201951 0.280055
vt 0.342498 0.464857
vt 0.292532 0.274430
vt 0.368238 0.291391
vt 0.110155 0.459019
vt 0.220310 0.459019
vt 0.707670 0.859896
vt 0.667984 0.777129
vt 0.707670 0.745538
vt 0.831276 0.552730
vt 0.770591 0.723272
vt 0.770596 0.551562
vt 0.807313 0.464857
vt 0.279947 0.249642
vt 0.329677 0.169110
vt 0.220310 0.000000
vt 0.392546 0.000000
vt 0.259163 0.060619
vt 0.816485 0.748428
vt 0.770587 0.767073
vt 0.377549 0.177907
vt 0.164757 0.777174
vt 0.000000 0.814869
vt 0.000000 0.705158
vt 0.220681 0.080678
vt 0.462831 0.615890
vt 0.403788 0.500151
vt 0.466327 0.466512
vt 0.292555 0.499392
vt 0.223807 0.464857
vt -0.000000 0.605414
vt 0.041949 0.492944
vt 0.041949 0.639339
vt 0.311471 0.892077
vt 0.252446 0.745393
vt 0.305742 0.746019
vt 0.195583 0.511675
vt 0.206961 0.459019
vt 0.206961 0.556582
vt -0.000000 0.459019
vt 0.153634 0.492944
vt 0.542313 0.989046
vt 0.591540 0.769500
vt 0.591540 0.965083
vt 0.760365 0.409826
vt 0.816174 0.365462
vt 0.816174 0.455268
vt 0.090304 0.000000
vt 0.110155 0.000136
vt 0.027539 0.165334
vt 0.442594 0.464857
vt 0.416855 0.291391
vt 0.492561 0.274430
vt 0.018359 0.280055
vt 0.709914 0.881431
vt 0.749600 0.798664
vt 0.749600 0.871350
vt 0.709914 0.552730
vt 0.733876 0.464857
vt 0.770594 0.464857
vt 0.505145 0.249642
vt 0.564782 -0.000000
vt 0.525929 0.060619
vt 0.392546 0.000000
vt 0.724689 0.748428
vt 0.407543 0.177907
vt 0.455416 0.169110
vt 0.164757 0.850315
vt 0.000000 0.924580
vt 0.564412 0.080678
vt 0.466327 0.616553
vt 0.536699 0.500552
vt 0.539075 0.646987
vt 0.467399 0.467138
vt 0.647929 0.499506
vt 0.718416 0.033925
vt 0.760365 0.146394
vt 0.718416 0.180320
vt 0.311471 0.892077
vt 0.370497 0.745393
vt 0.402632 0.892077
vt 0.683210 0.692235
vt 0.647122 0.688643
vt 0.709914 0.680332
vt 0.606731 0.033925
vt 0.760365 -0.000000
vt 0.640768 0.965083
vt 0.591540 0.745538
vt 0.640768 0.769500
vt 0.816174 0.365462
vt 0.871983 0.409826
vt 0.842208 0.447995
vt 0.827487 0.406324
vt 0.816174 0.455268
vt 0.596025 0.400648
vt 0.596025 0.286840
vt 0.642793 0.362809
vt 0.689561 0.400648
vt 0.642793 0.362808
vt 0.689561 0.286840
vt 0.829172 0.767073
vt 0.789384 0.837435
vt 0.789384 0.781172
vt 0.749600 0.767073
vt 0.789384 0.837442
vt 0.749600 0.855599
vt 0.720804 0.425196
vt 0.720804 0.246139
vt 0.564782 0.425196
vt 0.903308 0.372383
vt 0.874162 0.410376
vt 0.871983 0.364478
vt 0.903308 0.448369
vt 0.905111 0.410376
vt 0.213480 0.478870
vt 0.213558 0.498721
vt 0.206961 0.478870
vt 0.667985 0.766191
vt 0.640768 0.933291
vt 0.640768 0.745538
vt 0.213558 0.459019
vt 0.504320 0.760972
vt 0.524169 0.921321
vt 0.504318 0.921329
vt 0.484467 0.921321
vt 0.748021 0.433891
vt 0.720804 0.266791
vt 0.748021 0.246139
vt 0.164757 0.705158
vt 0.218770 0.926219
vt 0.164757 0.950118
vt 0.195583 0.705158
vt 0.153634 0.682203
vt 0.220310 0.680304
vt 0.456645 0.745393
vt 0.402632 0.966454
vt 0.403736 0.751839
vt 0.564782 0.246139
vt 0.564782 -0.000000
vt 0.709914 0.464857
vt 0.973607 0.006379
vt 0.928776 0.410436
vt 0.928776 0.000000
vt 0.966452 0.506910
vt 0.932904 0.869568
vt 0.932904 0.464857
vt 0.770552 0.000000
vt 0.831276 0.829335
vt 0.879625 0.464857
vt 0.888068 0.829335
vt 0.871984 0.364478
vt 0.880427 0.000000
vt 0.928776 0.364478
vt 0.861796 0.000000
vt 1.000000 0.464857
vt 1.000000 0.869568
vt 0.966452 0.506910
vt 0.932904 0.464857
vt 0.932904 0.875295
vt 0.888068 0.471235
vt 0.288679 0.745393
vt 0.288679 0.688491
vt 0.667984 0.849815
vt 0.826815 0.725219
vt 0.164757 0.813745
vt 0.403788 0.646605
vt 0.220310 0.892077
vt 0.195583 0.459019
vt 0.542313 0.745538
vt 0.000000 0.459019
vt 0.709914 0.767073
vt 0.714363 0.725219
vt 0.317200 0.746019
vt 0.648045 0.745538
vt 0.591540 0.989046
vt 0.829172 0.855593
vt 0.789384 0.781175
vt 0.564782 0.246139
vt 0.871983 0.456274
vt 0.542313 0.745538
vt 0.466327 0.745538
vt 0.217666 0.711603
vt 0.456645 0.990353
vt 0.606731 0.223184
s 0
f 12/1/1 3/2/1 4/3/1
f 13/4/2 4/3/2 5/5/2
f 3/6/3 49/7/3 4/8/3
f 9/9/2 5/5/2 1/10/2
f 8/11/4 45/12/4 7/13/4
f 7/14/5 15/15/5 14/16/5
f 14/16/6 2/17/6 7/14/6
f 4/8/7 6/18/7 8/19/7
f 2/20/8 1/21/8 16/22/8
f 15/15/9 49/23/9 50/24/9
f 5/25/10 4/8/10 8/19/10
f 5/25/11 8/19/11 1/21/11
f 2/26/12 9/27/12 1/28/12
f 8/19/13 7/29/13 16/22/13
f 1/21/14 8/19/14 16/22/14
f 2/30/15 19/31/15 17/32/15
f 17/32/16 22/33/16 20/34/16
f 7/35/17 19/36/17 16/37/17
f 7/38/18 17/39/18 18/40/18
f 58/41/19 57/42/19 23/43/19
f 18/44/20 22/45/20 19/36/20
f 17/46/21 21/47/21 18/48/21
f 24/49/22 23/50/22 57/51/22
f 12/1/23 27/52/23 51/53/23
f 13/4/2 28/54/2 12/1/2
f 27/55/24 28/56/24 52/57/24
f 9/9/2 29/58/2 13/4/2
f 32/59/25 48/60/25 46/61/25
f 15/15/26 31/62/26 14/16/26
f 14/16/27 26/63/27 10/64/27
f 28/56/28 30/65/28 52/57/28
f 26/66/29 33/67/29 25/68/29
f 52/69/30 15/15/30 50/24/30
f 29/70/31 32/71/31 28/56/31
f 29/70/32 25/68/32 32/71/32
f 9/27/12 26/72/12 25/73/12
f 32/71/33 33/67/33 31/74/33
f 25/68/34 33/67/34 32/71/34
f 26/75/35 36/76/35 33/77/35
f 34/78/16 39/79/16 36/76/16
f 36/80/36 31/81/36 33/82/36
f 31/83/37 34/84/37 26/85/37
f 40/86/38 59/87/38 60/88/38
f 39/89/20 35/90/20 36/80/20
f 38/91/21 34/92/21 35/93/21
f 41/94/39 42/95/39 40/96/39
f 61/97/40 40/96/40 60/98/40
f 44/99/41 45/100/41 43/101/41
f 47/102/42 46/103/42 48/104/42
f 8/105/43 44/106/43 43/107/43
f 32/108/44 47/109/44 30/110/44
f 30/111/45 48/104/45 31/112/45
f 6/113/46 45/100/46 44/99/46
f 53/114/47 50/115/47 49/116/47
f 55/117/48 50/115/48 54/118/48
f 11/119/49 3/120/49 51/121/49
f 55/122/50 27/123/50 52/124/50
f 27/125/49 11/119/49 51/121/49
f 54/126/51 3/127/51 11/128/51
f 27/129/52 54/126/52 11/128/52
f 3/130/53 53/131/53 49/132/53
f 21/133/54 57/134/54 58/135/54
f 22/45/55 58/136/55 56/137/55
f 22/33/56 57/138/56 20/34/56
f 38/139/57 60/140/57 37/141/57
f 39/89/58 61/142/58 38/143/58
f 60/88/59 39/79/59 37/144/59
f 58/145/60 62/146/60 56/147/60
f 23/148/61 62/149/61 58/150/61
f 24/49/62 62/151/62 23/50/62
f 56/152/63 62/153/63 24/154/63
f 42/155/64 63/156/64 59/157/64
f 41/94/65 63/158/65 42/95/65
f 61/159/66 63/160/66 41/161/66
f 59/162/67 63/163/67 61/164/67
f 24/165/68 57/138/68 56/166/68
f 12/1/69 51/53/69 3/2/69
f 13/4/2 12/1/2 4/3/2
f 9/9/2 13/4/2 5/5/2
f 8/11/4 43/167/4 45/12/4
f 7/14/70 6/168/70 15/15/70
f 14/16/27 10/64/27 2/17/27
f 4/8/71 49/7/71 6/18/71
f 15/15/72 6/168/72 49/23/72
f 2/26/12 10/169/12 9/27/12
f 2/30/73 16/170/73 19/31/73
f 17/32/16 19/31/16 22/33/16
f 7/35/17 18/44/17 19/36/17
f 7/38/74 2/171/74 17/39/74
f 18/44/20 21/172/20 22/45/20
f 17/46/21 20/173/21 21/47/21
f 12/1/1 28/54/1 27/52/1
f 13/4/2 29/58/2 28/54/2
f 9/9/2 25/174/2 29/58/2
f 32/59/25 31/175/25 48/60/25
f 15/15/75 30/176/75 31/62/75
f 14/16/76 31/62/76 26/63/76
f 28/56/77 32/71/77 30/65/77
f 52/69/78 30/176/78 15/15/78
f 9/27/12 10/169/12 26/72/12
f 26/75/79 34/78/79 36/76/79
f 34/78/16 37/144/16 39/79/16
f 36/80/36 35/90/36 31/81/36
f 31/83/80 35/177/80 34/84/80
f 40/86/81 42/178/81 59/87/81
f 39/89/20 38/143/20 35/90/20
f 38/91/21 37/179/21 34/92/21
f 61/97/82 41/94/82 40/96/82
f 8/105/43 6/180/43 44/106/43
f 32/108/44 46/181/44 47/109/44
f 30/111/45 47/102/45 48/104/45
f 6/113/46 7/182/46 45/100/46
f 53/114/47 54/118/47 50/115/47
f 55/117/48 52/183/48 50/115/48
f 54/126/83 53/184/83 3/127/83
f 27/129/84 55/185/84 54/126/84
f 21/133/85 20/186/85 57/134/85
f 22/45/86 21/172/86 58/136/86
f 22/33/87 56/166/87 57/138/87
f 38/139/88 61/187/88 60/140/88
f 39/89/89 59/188/89 61/142/89
f 60/88/90 59/87/90 39/79/90
