# Blender 4.5.4 LTS
# www.blender.org
o Cactus_2
v -1.000000 -1.000000 1.000000
v -1.000000 2.000000 2.000000
v -1.000000 -1.000000 -1.000000
v -1.000000 0.000000 -1.000000
v 1.000000 -1.000000 1.000000
v 1.000000 2.000000 2.000000
v 1.000000 -1.000000 -1.000000
v 1.000000 0.000000 -1.000000
v -1.000000 -1.000000 0.000000
v -1.000000 2.000000 0.000000
v 1.000000 -1.000000 0.000000
v 1.000000 2.000000 0.000000
v 1.000000 5.000000 0.000000
v 1.000000 5.000000 2.000000
v -1.000000 5.000000 0.000000
v 0.500000 8.000001 0.500000
v 0.500000 8.000001 1.500000
v -0.500000 8.000001 1.500000
v -0.500000 8.000001 0.500000
v -0.840615 5.956312 1.840615
v -1.000000 5.000000 1.017483
v -1.000000 4.017484 2.000000
v -0.017483 5.000000 2.000000
v 1.000000 2.000000 1.000000
v 1.000000 5.000000 1.000000
v 1.000000 3.500000 0.000000
v 1.000000 3.500000 2.000000
v 3.000000 4.245254 1.000000
v 1.000000 4.698102 1.000000
v 1.000000 3.500000 1.745253
v 1.000000 2.301899 1.000000
v 1.000000 3.500000 0.254747
v 3.000000 3.500000 0.745253
v 3.000000 2.754747 1.000000
v 3.000000 3.500000 0.254747
vn -1.0000 -0.0000 -0.0000
vn -0.0000 -0.0000 -1.0000
vn 1.0000 -0.0000 -0.0000
vn -0.0000 -0.3162 0.9487
vn -0.0000 -1.0000 -0.0000
vn -0.0000 0.7071 -0.7071
vn -0.0000 0.4472 -0.8944
vn -0.6348 -0.4406 0.6348
vn -0.0000 1.0000 -0.0000
vn 0.9864 0.1644 -0.0000
vn -0.0000 0.1644 -0.9864
vn -0.5774 0.5774 0.5774
vn -0.0000 0.1644 0.9864
vn -0.0000 -0.0000 1.0000
vn -0.9864 0.1644 -0.0000
vn 0.1187 -0.5244 -0.8431
vn 0.4277 0.2924 0.8553
vn 0.1187 0.5244 0.8431
vn 0.1187 0.5244 -0.8431
vn -0.0000 -0.7071 -0.7071
vn 0.1187 -0.5244 0.8431
vn 0.4277 -0.2924 0.8553
vt 0.865115 0.165616
vt 0.872665 0.160452
vt 0.871475 0.166807
vt 0.181169 0.954294
vt 0.194126 0.960565
vt 0.181187 0.960555
vt 0.876642 0.146512
vt 0.883002 0.145321
vt 0.886575 0.164396
vt 0.848118 0.396845
vt 0.860815 0.416749
vt 0.847904 0.416806
vt 0.588116 0.177038
vt 0.581646 0.164098
vt 0.588116 0.164098
vt 0.556837 0.172816
vt 0.569847 0.166981
vt 0.569776 0.172864
vt 0.194162 0.940150
vt 0.194108 0.954304
vt 0.594587 0.177038
vt 0.594587 0.164098
vt 0.872664 0.160420
vt 0.880215 0.165587
vt 0.873855 0.166778
vt 0.858755 0.164426
vt 0.868683 0.146553
vt 0.859650 0.371426
vt 0.860395 0.378111
vt 0.854473 0.377503
vt 0.181223 0.940139
vt 0.194108 0.921367
vt 0.194135 0.930759
vt 0.515370 0.654091
vt 0.508900 0.647621
vt 0.515370 0.647621
vt 0.879429 0.126246
vt 0.872664 0.107701
vt 0.879024 0.106509
vt 0.181169 0.921357
vt 0.190864 0.901766
vt 0.865781 0.126278
vt 0.858363 0.131352
vt 0.859580 0.124851
vt 0.850704 0.358528
vt 0.857160 0.358499
vt 0.855964 0.144172
vt 0.872252 0.127489
vt 0.848011 0.387188
vt 0.860885 0.383800
vt 0.866305 0.106509
vt 0.872665 0.107700
vt 0.511144 0.645377
vt 0.508900 0.640802
vt 0.569847 0.176313
vt 0.556908 0.179100
vt 0.556837 0.171323
vt 0.543720 0.176808
vt 0.543506 0.172177
vt 0.543506 0.167214
vt 0.556351 0.164098
vt 0.885955 0.134895
vt 0.885789 0.125054
vt 0.876476 0.136671
vt 0.882642 0.143401
vt 0.887575 0.134592
vt 0.873070 0.127437
vt 0.889362 0.144130
vt 0.861029 0.396788
vt 0.581646 0.177038
vt 0.556908 0.164098
vt 0.508900 0.654091
vt 0.184395 0.901760
vt 0.847904 0.377531
vt 0.861691 0.119180
vt 0.515719 0.647620
vt 0.556696 0.179521
vt 0.879789 0.128165
vt 0.874856 0.136974
s 0
f 9/1/1 4/2/1 3/3/1
f 4/4/2 7/5/2 3/6/2
f 12/7/3 24/8/3 5/9/3
f 6/10/4 1/11/4 5/12/4
f 11/13/5 1/14/5 9/15/5
f 32/16/6 28/17/6 35/18/6
f 4/4/7 12/19/7 8/20/7
f 7/21/5 9/15/5 3/22/5
f 8/23/3 11/24/3 7/25/3
f 1/26/1 10/27/1 9/1/1
f 20/28/8 21/29/8 23/30/8
f 10/31/2 13/32/2 26/33/2
f 19/34/9 17/35/9 16/36/9
f 25/37/10 16/38/10 17/39/10
f 15/40/11 16/41/11 13/32/11
f 21/42/12 22/43/12 23/44/12
f 23/30/13 17/45/13 18/46/13
f 2/47/1 21/42/1 15/48/1
f 27/49/14 23/30/14 22/50/14
f 21/42/15 18/51/15 19/52/15
f 33/53/3 35/35/3 28/54/3
f 32/16/16 34/55/16 31/56/16
f 30/57/17 34/58/17 33/59/17
f 30/57/18 28/60/18 29/61/18
f 30/62/3 25/37/3 14/63/3
f 12/7/3 32/64/3 31/65/3
f 24/8/3 30/62/3 27/66/3
f 32/64/3 13/67/3 25/37/3
f 9/1/1 10/27/1 4/2/1
f 4/4/2 8/20/2 7/5/2
f 5/9/3 11/24/3 12/7/3
f 24/8/3 6/68/3 5/9/3
f 6/10/4 2/69/4 1/11/4
f 11/13/5 5/70/5 1/14/5
f 32/16/19 29/71/19 28/17/19
f 4/4/7 10/31/7 12/19/7
f 7/21/5 11/13/5 9/15/5
f 8/23/3 12/7/3 11/24/3
f 1/26/1 2/47/1 10/27/1
f 26/33/2 12/19/2 10/31/2
f 10/31/2 15/40/2 13/32/2
f 19/34/9 18/72/9 17/35/9
f 17/39/10 14/63/10 25/37/10
f 25/37/10 13/67/10 16/38/10
f 15/40/11 19/73/11 16/41/11
f 18/46/13 20/28/13 23/30/13
f 23/30/13 14/74/13 17/45/13
f 15/48/1 10/27/1 2/47/1
f 2/47/1 22/43/1 21/42/1
f 22/50/14 2/69/14 6/10/14
f 27/49/14 14/74/14 23/30/14
f 22/50/14 6/10/14 27/49/14
f 19/52/15 15/48/15 21/42/15
f 21/42/15 20/75/15 18/51/15
f 33/53/3 34/76/3 35/35/3
f 32/16/20 35/18/20 34/55/20
f 30/57/21 31/77/21 34/58/21
f 30/57/22 33/59/22 28/60/22
f 14/63/3 27/66/3 30/62/3
f 30/62/3 29/78/3 25/37/3
f 31/65/3 24/8/3 12/7/3
f 12/7/3 26/79/3 32/64/3
f 27/66/3 6/68/3 24/8/3
f 24/8/3 31/65/3 30/62/3
f 25/37/3 29/78/3 32/64/3
f 32/64/3 26/79/3 13/67/3
